<svg width="71" height="73" viewBox="0 0 71 73" fill="none" xmlns="http://www.w3.org/2000/svg">
<path d="M69.4902 36.5C69.4902 55.9049 54.2169 71.5645 35.4628 71.5645C16.7088 71.5645 1.43548 55.9049 1.43548 36.5C1.43548 17.0951 16.7088 1.43548 35.4628 1.43548C54.2169 1.43548 69.4902 17.0951 69.4902 36.5Z" fill="#FFF0E4" stroke="black" stroke-width="2.87097"/>
<path d="M17.8962 34.9706V48.7746H12.3202V24.6346H16.7402L27.9262 38.8466V24.6346H33.5022V48.7746H28.9462L17.8962 34.9706ZM34.515 24.6686H39.649L42.165 32.3866L44.681 24.6686H49.849L45.735 35.8886L48.183 42.3146L54.235 24.6346H60.321L50.903 48.7746H46.075L42.165 39.3226L38.289 48.7746H33.427L24.043 24.6346H30.095L36.181 42.3146L38.561 35.8886L34.515 24.6686Z" fill="black"/>
</svg>
