<svg width="240" height="240" viewBox="0 0 240 240" fill="none" xmlns="http://www.w3.org/2000/svg">
<path d="M35.96 35.88L49.095 184.73C49.64 190.915 53.945 196.13 59.915 197.835L113.13 213.04C117.62 214.325 122.375 214.325 126.865 213.04L180.08 197.835C186.05 196.13 190.355 190.92 190.9 184.73L204.035 35.88C204.555 30.03 199.95 25 194.08 25H45.92C40.05 25 35.445 30.03 35.96 35.88Z" fill="url(#paint0_linear_57_222)"/>
<path d="M120 40V199.5L169.38 185.39C173.365 184.25 176.235 180.77 176.595 176.645L188.025 45.435C188.28 42.51 185.98 40 183.045 40H120Z" fill="#35C1F1"/>
<path d="M165.5 65H120V85H144.5L143 105H120V125H142L140.5 147.5L120 154.5V175.5L159.5 162.5L163 105L165.5 65Z" fill="white"/>
<path d="M120 65V85H75.5L74 65H120ZM97 105L98 125H120V105H97ZM99 135H79L80.5 162.5L120 175.5V154.5L99.5 147.5L99 135Z" fill="#D6E0E9"/>
<path opacity="0.05" d="M165.5 65L163 105L159.5 162.5L120 175.5L80.5001 162.5L79.0001 135H99.0001L99.5001 147.5L120 154.5L140.5 147.5L142 125H120H98.0001L97.0001 105H120H143L144.5 85H120H75.5001L74.0001 65H120H165.5ZM170.82 60H165.5H120H74.0001H68.6101L69.0151 65.375L70.5151 85.375L70.8601 90H75.5001H120H139.11L138.36 100H120H97.0001H91.7451L92.0051 105.25L93.0051 125.25L93.2451 130H79.0001H73.7201L74.0101 135.27L75.5101 162.77L75.6951 166.18L78.9401 167.25L118.44 180.25L120 180.765L121.565 180.25L161.065 167.25L164.285 166.19L164.49 162.805L167.99 105.305L170.49 65.315L170.82 60ZM103.805 130H120H136.655L135.73 143.845L120 149.215L104.36 143.875L103.995 134.8L103.805 130Z" fill="black"/>
<path opacity="0.07" d="M165.5 65L163 105L159.5 162.5L120 175.5L80.4999 162.5L78.9999 135H98.9999L99.4999 147.5L120 154.5L140.5 147.5L142 125H120H97.9999L96.9999 105H120H143L144.5 85H120H75.4999L73.9999 65H120H165.5ZM168.16 62.5H165.5H120H73.9999H71.3049L71.5049 65.185L73.0049 85.185L73.1799 87.5H75.4999H120H141.805L140.68 102.5H120H96.9999H94.3699L94.4999 105.125L95.4999 125.125L95.6199 127.5H97.9999H120H139.33L138.12 145.67L120 151.86L101.93 145.69L101.5 134.9L101.4 132.5H98.9999H78.9999H76.3599L76.5049 135.135L78.0049 162.635L78.0999 164.34L79.7199 164.875L119.22 177.875L120 178.13L120.78 177.875L160.28 164.875L161.89 164.345L161.995 162.65L165.495 105.15L167.995 65.155L168.16 62.5Z" fill="black"/>
<defs>
<linearGradient id="paint0_linear_57_222" x1="81.65" y1="-13.74" x2="161.465" y2="205.545" gradientUnits="userSpaceOnUse">
<stop stop-color="#2AA4F4"/>
<stop offset="1" stop-color="#007AD9"/>
</linearGradient>
</defs>
</svg>
