<svg width="240" height="240" viewBox="0 0 240 240" fill="none" xmlns="http://www.w3.org/2000/svg">
<g clip-path="url(#clip0_60_730)">
<path d="M185.13 68.04L187.38 64.635L191.31 67.02L193.05 68.265C197.25 71.505 206.085 79.785 207.99 93.525C211.335 92.925 214.71 92.625 218.085 92.625C226.095 92.625 231.48 94.485 234.54 96.03L236.115 96.885L237.135 97.56L240 99.9L239.01 102.9C237.471 107.013 235.067 110.747 231.96 113.85C227.61 118.335 219.96 123.63 207.825 124.32L205.155 124.395H202.935C197.385 139.05 189.93 155.565 177.405 170.385C169.973 179.192 161.158 186.73 151.305 192.705C139.492 199.713 126.557 204.626 113.07 207.225C103.41 209.1 93.6 210.03 83.775 210C62.025 210 42.825 205.68 31.02 198.12C20.475 191.385 12.375 180.39 6.93003 165.465C2.16492 151.827 -0.175421 137.46 0.0150268 123.015C-0.00965332 121.163 0.630636 119.363 1.81964 117.943C3.00863 116.523 4.6675 115.576 6.49503 115.275L7.51503 115.2H165.615L166.995 115.095L169.23 114.855C173.07 114.345 178.92 113.205 183.03 110.805C178.11 102.66 176.715 93.135 179.01 82.995C179.971 78.7653 181.484 74.6803 183.51 70.845L185.13 68.04ZM43.35 86.76L43.95 86.865C44.2241 86.9675 44.4708 87.1318 44.6711 87.3451C44.8714 87.5585 45.0199 87.815 45.105 88.095L45.195 88.695V108.42L45.105 109.035C45.0184 109.317 44.8676 109.574 44.6646 109.788C44.4616 110.001 44.2119 110.164 43.935 110.265L43.35 110.355H22.17C21.7753 110.35 21.3924 110.219 21.0769 109.982C20.7614 109.744 20.5296 109.413 20.415 109.035L20.31 108.435V88.68L20.415 88.08C20.4997 87.7957 20.6495 87.5351 20.8526 87.319C21.0558 87.1028 21.3065 86.9371 21.585 86.835L22.17 86.745L43.35 86.76ZM72.555 86.76L73.14 86.865C73.4169 86.9656 73.6666 87.129 73.8696 87.3425C74.0726 87.5559 74.2234 87.8135 74.31 88.095L74.4 88.695V108.42L74.295 109.035C74.2084 109.317 74.0576 109.574 73.8546 109.788C73.6516 110.001 73.4019 110.164 73.125 110.265L72.54 110.355H51.36C50.9659 110.347 50.5841 110.216 50.2691 109.979C49.954 109.742 49.7216 109.412 49.605 109.035L49.5 108.45V88.695C49.4968 88.2936 49.6176 87.9011 49.8458 87.5709C50.0739 87.2407 50.3985 86.9889 50.775 86.85L51.36 86.745L72.555 86.76ZM102.195 86.76L102.78 86.865C103.054 86.9675 103.301 87.1318 103.501 87.3451C103.701 87.5585 103.85 87.815 103.935 88.095L104.04 88.695V108.42L103.935 109.035C103.848 109.317 103.698 109.574 103.495 109.788C103.292 110.001 103.042 110.164 102.765 110.265L102.18 110.355H81C80.6053 110.35 80.2224 110.219 79.9069 109.982C79.5914 109.744 79.3596 109.413 79.245 109.035L79.155 108.435V88.68L79.245 88.08C79.3297 87.7957 79.4795 87.5351 79.6826 87.319C79.8857 87.1028 80.1365 86.9371 80.415 86.835L81 86.745L102.195 86.76ZM131.475 86.76L132.06 86.865C132.337 86.9656 132.587 87.129 132.79 87.3425C132.993 87.5559 133.143 87.8135 133.23 88.095L133.335 88.695V108.42C133.338 108.821 133.217 109.214 132.989 109.544C132.761 109.874 132.437 110.126 132.06 110.265L131.46 110.355H110.295C109.9 110.35 109.517 110.219 109.202 109.982C108.886 109.744 108.655 109.413 108.54 109.035L108.45 108.435V88.68L108.54 88.08C108.625 87.7957 108.774 87.5351 108.978 87.319C109.181 87.1028 109.432 86.9371 109.71 86.835L110.31 86.745H131.49L131.475 86.76ZM161.025 86.76L161.61 86.865C161.887 86.9656 162.137 87.129 162.34 87.3425C162.543 87.5559 162.693 87.8135 162.78 88.095L162.87 88.695V108.42C162.873 108.821 162.752 109.214 162.524 109.544C162.296 109.874 161.972 110.126 161.595 110.265L161.01 110.355H139.83C139.435 110.35 139.052 110.219 138.737 109.982C138.421 109.744 138.19 109.413 138.075 109.035L137.985 108.435V88.68L138.075 88.08C138.16 87.7957 138.31 87.5351 138.513 87.319C138.716 87.1028 138.967 86.9371 139.245 86.835L139.845 86.745H161.01L161.025 86.76ZM72.525 58.38L73.125 58.485C73.3975 58.586 73.6432 58.748 73.8434 58.9586C74.0435 59.1692 74.1929 59.4228 74.28 59.7L74.385 60.315V80.04C74.3882 80.4414 74.2675 80.8339 74.0393 81.1641C73.8111 81.4943 73.4866 81.7461 73.11 81.885L72.525 81.99H51.36C50.9621 81.9804 50.5775 81.8444 50.262 81.6017C49.9465 81.359 49.7164 81.0222 49.605 80.64L49.5 80.04V60.315C49.4999 59.9162 49.6221 59.5269 49.8501 59.1997C50.078 58.8725 50.4009 58.623 50.775 58.485L51.36 58.38H72.525ZM102.165 58.38L102.765 58.485C103.037 58.586 103.283 58.748 103.483 58.9586C103.684 59.1692 103.833 59.4228 103.92 59.7L104.025 60.315V80.04C104.028 80.4414 103.907 80.8339 103.679 81.1641C103.451 81.4943 103.127 81.7461 102.75 81.885L102.165 81.99H81C80.6021 81.9804 80.2175 81.8444 79.902 81.6017C79.5865 81.359 79.3564 81.0222 79.245 80.64L79.155 80.04V60.315L79.245 59.715C79.3317 59.4335 79.4824 59.1759 79.6854 58.9625C79.8885 58.7491 80.1382 58.5856 80.415 58.485L81 58.38H102.165ZM131.46 58.38C132.27 58.38 132.96 58.935 133.215 59.7L133.32 60.315V80.04C133.323 80.4414 133.202 80.8339 132.974 81.1641C132.746 81.4943 132.422 81.7461 132.045 81.885L131.445 81.99H110.295C109.897 81.9804 109.512 81.8444 109.197 81.6017C108.881 81.359 108.651 81.0222 108.54 80.64L108.45 80.04V60.315L108.54 59.715C108.627 59.4335 108.777 59.1759 108.98 58.9625C109.183 58.7491 109.433 58.5856 109.71 58.485L110.31 58.38H131.49H131.46ZM131.46 30C132.27 30 132.96 30.555 133.215 31.32L133.32 31.92V51.66C133.323 52.0614 133.202 52.4539 132.974 52.7841C132.746 53.1143 132.422 53.3661 132.045 53.505L131.445 53.595H110.295C109.9 53.5897 109.517 53.4589 109.202 53.2216C108.886 52.9843 108.655 52.6528 108.54 52.275L108.45 51.675V31.92L108.54 31.32C108.627 31.0385 108.777 30.7809 108.98 30.5675C109.183 30.354 109.433 30.1906 109.71 30.09L110.295 30H131.475H131.46Z" fill="#2396ED"/>
</g>
<defs>
<clipPath id="clip0_60_730">
<rect width="240" height="240" fill="white"/>
</clipPath>
</defs>
</svg>
