<svg width="240" height="240" viewBox="0 0 240 240" fill="none" xmlns="http://www.w3.org/2000/svg">
<path d="M128.25 120C128.25 100.665 143.535 85.0049 162.375 85.0049C181.23 85.0049 196.5 100.65 196.5 120C196.5 139.335 181.23 154.995 162.375 154.995C143.55 154.995 128.25 139.35 128.25 120Z" fill="#1ABCFE"/>
<path d="M60 190.005C60 170.67 75.285 154.995 94.125 154.995H128.25V190.005C128.25 209.325 112.965 225 94.125 225C75.285 225 60 209.325 60 190.005Z" fill="#0ACF83"/>
<path d="M128.25 15V85.005H162.375C181.23 85.005 196.5 69.33 196.5 49.995C196.5 30.675 181.23 15 162.375 15H128.25Z" fill="#FF7262"/>
<path d="M60 49.995C60 69.33 75.285 85.005 94.125 85.005H128.25V15H94.125C75.285 15 60 30.675 60 49.995Z" fill="#F24E1E"/>
<path d="M60 120C60 139.335 75.285 154.995 94.125 154.995H128.25V85.0049H94.125C75.285 85.0049 60 100.65 60 120Z" fill="#A259FF"/>
</svg>
