<svg width="240" height="240" viewBox="0 0 240 240" fill="none" xmlns="http://www.w3.org/2000/svg">
<path d="M19.3902 130.599C13.5366 124.745 13.5366 115.255 19.3902 109.401L109.401 19.3902C115.255 13.5366 124.745 13.5366 130.599 19.3902L220.609 109.401C226.463 115.255 226.463 124.745 220.609 130.599L130.599 220.609C124.745 226.463 115.255 226.463 109.401 220.609L19.3902 130.599Z" fill="#EE513B"/>
<path d="M91.1167 37.9614L82.002 47.0765L105.544 70.6183C104.591 72.6614 104.059 74.9401 104.059 77.343C104.059 84.165 108.346 89.9858 114.372 92.259V149.849C108.346 152.122 104.059 157.943 104.059 164.765C104.059 173.567 111.195 180.702 119.997 180.702C128.799 180.702 135.934 173.567 135.934 164.765C135.934 158.58 132.412 153.218 127.263 150.576V92.3378L149.767 114.842C148.861 116.843 148.357 119.066 148.357 121.406C148.357 130.208 155.492 137.343 164.294 137.343C173.096 137.343 180.232 130.208 180.232 121.406C180.232 112.604 173.096 105.468 164.294 105.468C162.583 105.468 160.936 105.737 159.391 106.236L135.223 82.0673C135.685 80.5748 135.934 78.9878 135.934 77.343C135.934 68.5409 128.799 61.4054 119.997 61.4054C118.352 61.4054 116.766 61.6546 115.273 62.1173L91.1167 37.9614Z" fill="white"/>
</svg>
