<svg width="240" height="240" viewBox="0 0 240 240" fill="none" xmlns="http://www.w3.org/2000/svg">
<g clip-path="url(#clip0_60_833)">
<path fill-rule="evenodd" clip-rule="evenodd" d="M120 0C186.276 0 240 55.0792 240 123.035C240 177.383 205.656 223.487 158.004 239.771C151.92 240.983 149.76 237.141 149.76 233.865C149.76 229.809 149.904 216.562 149.904 200.098C149.904 188.626 146.064 181.138 141.756 177.322C168.48 174.274 196.56 163.869 196.56 116.613C196.56 103.173 191.904 92.2058 184.2 83.5898C185.448 80.4818 189.564 67.9674 183.024 51.0234C183.024 51.0234 172.968 47.7267 150.06 63.6387C140.472 60.9147 130.2 59.5441 120 59.4961C109.8 59.5441 99.54 60.9147 89.964 63.6387C67.032 47.7267 56.952 51.0234 56.952 51.0234C50.436 67.9674 54.552 80.4818 55.788 83.5898C48.12 92.2058 43.428 103.173 43.428 116.613C43.428 163.749 71.448 174.314 98.1 177.422C94.668 180.494 91.56 185.913 90.48 193.869C83.64 197.013 66.264 202.454 55.56 183.65C55.56 183.65 49.212 171.829 37.164 170.965C37.164 170.965 25.464 170.809 36.348 178.441C36.348 178.441 44.208 182.221 49.668 196.441C49.668 196.441 56.712 218.401 90.096 210.961C90.156 221.245 90.264 230.937 90.264 233.865C90.264 237.117 88.056 240.923 82.068 239.783C34.38 223.523 0 177.395 0 123.035C0 55.0792 53.736 0 120 0Z" fill="black"/>
</g>
<defs>
<clipPath id="clip0_60_833">
<rect width="240" height="240" fill="white"/>
</clipPath>
</defs>
</svg>
