<svg width="240" height="240" viewBox="0 0 240 240" fill="none" xmlns="http://www.w3.org/2000/svg">
<path d="M224.625 133.56L212.85 98.2501L189.57 28.2001C189.294 27.4069 188.777 26.72 188.091 26.2358C187.405 25.7516 186.585 25.4943 185.745 25.5001C184.908 25.4974 184.091 25.7561 183.408 26.2402C182.725 26.7242 182.21 27.4094 181.935 28.2001L158.655 98.2051H81.33L58.05 28.1851C57.7745 27.3959 57.2591 26.7128 56.5758 26.2313C55.8926 25.7498 55.0758 25.4941 54.24 25.5001C53.4024 25.4952 52.5842 25.753 51.9008 26.2374C51.2173 26.7217 50.7029 27.4081 50.43 28.2001L27.18 98.2051L15.42 133.56C14.8995 135.135 14.9 136.836 15.4214 138.411C15.9428 139.986 16.9574 141.352 18.315 142.305L120.015 214.485L221.685 142.305C223.049 141.356 224.071 139.993 224.6 138.419C225.13 136.844 225.138 135.14 224.625 133.56Z" fill="#FC6D26"/>
<path d="M120 214.44L158.67 98.1899H81.345L120 214.44Z" fill="#E24329"/>
<path d="M120 214.44L81.315 98.1899H27.195L120 214.44Z" fill="#FC6D26"/>
<path d="M27.15 98.2349L15.39 133.545C14.8695 135.12 14.87 136.821 15.3914 138.396C15.9128 139.971 16.9274 141.336 18.285 142.29L120 214.5L27.15 98.2499V98.2349Z" fill="#FCA326"/>
<path d="M27.18 98.2349H81.36L58.05 28.2299C57.7751 27.4392 57.2602 26.754 56.5772 26.2699C55.8942 25.7859 55.0771 25.5272 54.24 25.5299C53.4003 25.5241 52.5799 25.7813 51.8939 26.2656C51.2078 26.7498 50.6907 27.4367 50.415 28.2299L27.18 98.2349Z" fill="#E24329"/>
<path d="M120 214.44L158.67 98.1899H212.88L120 214.44Z" fill="#FC6D26"/>
<path d="M212.85 98.2349L224.595 133.545C225.118 135.12 225.119 136.822 224.597 138.397C224.076 139.973 223.059 141.338 221.7 142.29L120 214.44L212.82 98.2349H212.85Z" fill="#FCA326"/>
<path d="M212.85 98.235H158.7L181.965 28.23C182.239 27.4356 182.755 26.7474 183.442 26.2628C184.128 25.7783 184.95 25.5219 185.79 25.53C187.515 25.53 189.045 26.625 189.6 28.23L212.88 98.235H212.85Z" fill="#E24329"/>
</svg>
