<svg width="240" height="240" viewBox="0 0 240 240" fill="none" xmlns="http://www.w3.org/2000/svg">
<path d="M205 25H35L50 195L120 215L190 195L205 25Z" fill="#E65100"/>
<path d="M120 40V199.5L176 183.5L188.5 40H120Z" fill="#FF6D00"/>
<path d="M120 125V105H163L159.5 162.5L120 175.5V154.5L140.5 147.5L142 125H120ZM164.5 85L166 65H120V85H164.5Z" fill="white"/>
<path d="M120 154.5V175.5L80.5 162.5L78.5 135H98.5L99.5 147.5L120 154.5ZM95.5 85H120V65H74.5L78 125H120V105H97L95.5 85Z" fill="#EEEEEE"/>
</svg>
