<svg width="24" height="24" viewBox="0 0 24 24" fill="none" xmlns="http://www.w3.org/2000/svg">
<path d="M22 12C22 17.5225 17.5225 22 12 22C6.4775 22 2 17.5225 2 12C2 6.4775 6.4775 2 12 2C17.5225 2 22 6.4775 22 12Z" fill="url(#paint0_linear_57_481)"/>
<path opacity="0.05" d="M5.05958 11.733C9.13708 9.8855 13.9261 7.881 14.6636 7.591C16.2896 6.9515 16.9986 7.605 16.8876 8.6475C16.7511 9.925 16.1041 13.6425 15.7061 16.306C15.4731 17.8645 14.6291 18.342 13.6766 17.7375C12.9541 17.279 10.4701 15.6525 9.81658 15.0965C9.37108 14.7175 9.06058 14.2925 9.37658 13.8595C9.46908 13.733 9.70558 13.478 9.83708 13.351C10.4966 12.712 10.4076 12.5745 9.61008 13.145C9.51508 13.213 8.96408 13.6125 8.73758 13.7635C8.18258 14.1335 7.67208 14.1535 6.80658 13.8595C6.09858 13.619 5.41858 13.4335 4.98958 13.248C4.39708 12.9915 4.17008 12.136 5.05958 11.733Z" fill="black"/>
<path opacity="0.07" d="M5.41799 11.7955C9.20399 10.103 13.86 8.16351 14.541 7.88901C16.173 7.23001 16.7735 7.62101 16.598 8.89451C16.435 10.0735 15.8565 13.7215 15.451 16.167C15.212 17.6065 14.514 17.9235 13.605 17.3355C13.0355 16.9685 10.7435 15.4585 10.1875 15.019C9.75749 14.6795 9.31199 14.2875 9.83249 13.72C10.0065 13.5305 10.9675 12.603 11.686 11.913C12.1025 11.5125 11.954 11.315 11.4515 11.659C10.53 12.2905 9.02249 13.29 8.75349 13.4715C8.24099 13.8165 7.75949 13.8995 6.92149 13.636C6.26099 13.428 5.62299 13.2265 5.29049 13.097C4.54749 12.809 4.53749 12.189 5.41799 11.7955Z" fill="black"/>
<path d="M5.80856 11.8689C9.50123 10.4053 14.2795 8.62095 14.9393 8.37393C16.6695 7.72758 17.2004 7.85133 16.9357 9.283C16.7455 10.312 16.1972 13.7184 15.7598 15.8388C15.5004 17.0963 14.9182 17.2452 14.0032 16.7012C13.5632 16.4394 11.3418 15.1158 10.8594 14.805C10.4194 14.5218 9.81239 14.181 10.5736 13.5099C10.8446 13.271 12.6202 11.7432 14.0038 10.5543C14.185 10.3982 13.9573 10.1416 13.7481 10.2668C11.8832 11.381 9.29784 12.9274 8.96873 13.1287C8.47162 13.4328 7.99405 13.5723 7.13718 13.3505C6.48951 13.183 5.85716 12.9831 5.61098 12.9069C4.66272 12.6137 4.88777 12.2339 5.80856 11.8689Z" fill="white"/>
<defs>
<linearGradient id="paint0_linear_57_481" x1="4.929" y1="4.929" x2="19.071" y2="19.071" gradientUnits="userSpaceOnUse">
<stop stop-color="#33BEF0"/>
<stop offset="1" stop-color="#0A85D9"/>
</linearGradient>
</defs>
</svg>
