<svg width="24" height="24" viewBox="0 0 24 24" fill="none" xmlns="http://www.w3.org/2000/svg">
<path fill-rule="evenodd" clip-rule="evenodd" d="M19 21H5C3.8955 21 3 20.1045 3 19V5C3 3.8955 3.8955 3 5 3H19C20.1045 3 21 3.8955 21 5V19C21 20.1045 20.1045 21 19 21Z" fill="#212121"/>
<path d="M17.1286 17H13.9101L6.91455 7H10.1331L17.1286 17ZM14.2936 16.152H15.5751L9.74955 7.848H8.46805L14.2936 16.152Z" fill="white"/>
<path d="M7.93312 17L11.5346 12.828L11.0636 12.2035L6.91162 17H7.93312Z" fill="white"/>
<path d="M12.2251 10.8605L12.6776 11.505L16.5681 7H15.5681L12.2251 10.8605Z" fill="white"/>
</svg>
