<svg width="240" height="240" viewBox="0 0 240 240" fill="none" xmlns="http://www.w3.org/2000/svg">
<path d="M170.085 209.95L70.085 210.045C48.085 210.065 30.07 192.085 30.045 170.085L29.95 70.0852C29.93 48.0852 47.91 30.0702 69.91 30.0452L169.91 29.9502C191.91 29.9302 209.925 47.9102 209.95 69.9102L210.045 169.91C210.07 191.915 192.085 209.93 170.085 209.95Z" fill="url(#paint0_radial_57_416)"/>
<path d="M170.085 209.95L70.085 210.045C48.085 210.065 30.07 192.085 30.045 170.085L29.95 70.0852C29.93 48.0852 47.91 30.0702 69.91 30.0452L169.91 29.9502C191.91 29.9302 209.925 47.9102 209.95 69.9102L210.045 169.91C210.07 191.915 192.085 209.93 170.085 209.95Z" fill="url(#paint1_radial_57_416)"/>
<path d="M120 155C100.705 155 85 139.3 85 120C85 100.7 100.705 85 120 85C139.295 85 155 100.7 155 120C155 139.3 139.295 155 120 155ZM120 95C106.215 95 95 106.215 95 120C95 133.785 106.215 145 120 145C133.785 145 145 133.785 145 120C145 106.215 133.785 95 120 95Z" fill="white"/>
<path d="M157.5 90C161.642 90 165 86.6421 165 82.5C165 78.3579 161.642 75 157.5 75C153.358 75 150 78.3579 150 82.5C150 86.6421 153.358 90 157.5 90Z" fill="white"/>
<path d="M150 185H90C70.705 185 55 169.3 55 150V90C55 70.7 70.705 55 90 55H150C169.295 55 185 70.7 185 90V150C185 169.3 169.295 185 150 185ZM90 65C76.215 65 65 76.215 65 90V150C65 163.785 76.215 175 90 175H150C163.785 175 175 163.785 175 150V90C175 76.215 163.785 65 150 65H90Z" fill="white"/>
<defs>
<radialGradient id="paint0_radial_57_416" cx="0" cy="0" r="1" gradientUnits="userSpaceOnUse" gradientTransform="translate(96.9 210.175) scale(224.495 224.495)">
<stop stop-color="#FFDD55"/>
<stop offset="0.328" stop-color="#FF543F"/>
<stop offset="0.348" stop-color="#FC5245"/>
<stop offset="0.504" stop-color="#E64771"/>
<stop offset="0.643" stop-color="#D53E91"/>
<stop offset="0.761" stop-color="#CC39A4"/>
<stop offset="0.841" stop-color="#C837AB"/>
</radialGradient>
<radialGradient id="paint1_radial_57_416" cx="0" cy="0" r="1" gradientUnits="userSpaceOnUse" gradientTransform="translate(58.93 27.7017) scale(149.065 99.322)">
<stop stop-color="#4168C9"/>
<stop offset="0.999" stop-color="#4168C9" stop-opacity="0"/>
</radialGradient>
</defs>
</svg>
