<svg width="240" height="240" viewBox="0 0 240 240" fill="none" xmlns="http://www.w3.org/2000/svg">
<path d="M30 210V30H210V210H30Z" fill="#F7DF1E"/>
<path d="M147.69 164.735C151.15 170.355 154.91 175.74 162.875 175.74C169.565 175.74 173.075 172.415 173.075 167.815C173.075 162.31 169.445 160.355 162.085 157.15L158.05 155.43C146.405 150.49 138.66 144.3 138.66 131.225C138.66 119.175 147.885 110.005 162.3 110.005C172.565 110.005 179.94 113.56 185.26 122.87L172.69 130.905C169.925 125.965 166.935 124.02 162.3 124.02C157.57 124.02 154.575 127.005 154.575 130.905C154.575 135.725 157.575 137.675 164.5 140.66L168.535 142.38C182.26 148.225 190 154.195 190 167.615C190 182.075 178.58 190 163.25 190C148.255 190 139.74 182.475 135 173.16L147.69 164.735ZM89.76 165.145C92.29 169.675 96.135 173.16 101.665 173.16C106.955 173.16 110 171.07 110 162.945V110H126.665V165.505C126.665 182.34 116.9 190 102.64 190C89.755 190 80.455 181.27 76.665 173.16L89.76 165.145Z" fill="#000001"/>
</svg>
