<svg width="240" height="240" viewBox="0 0 240 240" fill="none" xmlns="http://www.w3.org/2000/svg">
<path d="M190.642 97.4259C190.642 137.401 158.948 169.839 119.829 169.839C80.7098 169.839 49.015 137.401 49.015 97.4259C49.015 57.4504 80.7098 25.0132 119.829 25.0132C158.948 25.0132 190.642 57.4504 190.642 97.4259Z" fill="#D33833"/>
<path d="M51.9275 115.358C51.9275 115.358 46.7878 39.8614 116.402 37.6913L111.548 29.582L73.7998 42.26L63.0064 54.6524L53.5836 72.6984L48.2155 93.7141L49.8145 107.763" fill="#EF3D3A"/>
<path d="M71.3442 48.0279C58.9518 60.7629 51.2422 78.295 51.2422 97.7117C51.2422 117.128 58.9518 134.66 71.3442 147.395C83.7937 160.13 100.869 167.954 119.829 167.954C138.788 167.954 155.864 160.13 168.313 147.395C180.706 134.66 188.415 117.128 188.415 97.7117C188.415 78.295 180.706 60.7629 168.313 48.0279C155.864 35.35 138.788 27.4691 119.829 27.4691C100.926 27.4691 83.7937 35.2928 71.3442 48.0279ZM68.2032 150.422C55.0113 136.945 46.8449 118.27 46.8449 97.7117C46.8449 77.1529 55.0113 58.4786 68.2032 44.9441C81.3951 31.4666 99.6696 23.0718 119.829 23.0718C139.988 23.0718 158.262 31.4666 171.454 44.9441C184.646 58.4215 192.812 77.0958 192.812 97.7117C192.812 118.27 184.646 136.945 171.454 150.422C158.262 163.957 139.988 172.294 119.829 172.294C99.6696 172.294 81.3951 163.957 68.2032 150.422Z" fill="#231F20"/>
<path d="M149.639 97.8258L138.846 99.4248L124.283 101.081L114.86 101.309L105.666 101.024L98.6417 98.8537L92.4169 92.115L87.5628 78.352L86.4777 75.3824L80.0245 73.2123L76.2554 66.9876L73.5714 58.0788L76.541 50.255L83.5652 47.7993L89.2189 50.4834L91.903 56.4226L95.1581 55.9087L96.2431 54.5381L95.1581 48.3133L94.8726 40.4895L96.4716 29.6962L96.4145 23.5285L101.326 15.6477L109.949 9.42291L125.025 2.96973L141.758 5.42536L156.321 15.9332L163.059 26.7266L167.399 34.5503L168.485 53.967L165.229 70.6996L159.29 85.5476L153.694 93.4856" fill="#F0D6B7"/>
<path d="M140.502 144.483L101.954 146.082V152.535L105.209 175.207L103.61 177.091L76.6552 167.897L74.7706 164.642L72.0866 134.146L65.7476 115.872L64.377 111.532L85.9638 96.6836L92.7025 93.9995L98.6417 101.309L103.781 105.878L109.721 107.762L112.405 108.562L115.66 122.611L118.115 125.58L124.34 123.41L120 131.805L143.414 142.884L140.502 144.483Z" fill="#335061"/>
<path d="M76.541 50.3692L83.5652 47.9135L89.2189 50.5976L91.903 56.5368L95.1581 56.0229L95.9576 52.7677L94.3586 46.543L95.9576 31.6949L94.587 23.5856L99.4412 17.9319L109.949 9.5942L106.979 5.53955L92.1314 12.8493L85.9067 17.7035L82.4231 25.2417L77.055 32.5515L75.4559 41.1748L76.541 50.3692Z" fill="#6D6B6D"/>
<path d="M87.6199 25.0131C87.6199 25.0131 91.6745 15.0192 107.836 10.165C123.998 5.31086 108.636 6.68145 108.636 6.68145L91.1035 13.4202L84.3647 20.1589L81.3951 25.527L87.6199 25.0131Z" fill="#DCD9D8"/>
<path d="M79.5106 48.4845C79.5106 48.4845 73.8569 29.5818 95.4437 26.8977L94.6442 23.6426L79.7961 27.1262L75.4559 41.1747L76.541 50.369L79.5106 48.4845Z" fill="#DCD9D8"/>
<path d="M88.1339 73.5549L91.6745 70.1284C91.6745 70.1284 93.2736 70.2997 93.5591 72.1843C93.8446 74.0689 94.6441 91.087 106.237 100.224C107.322 101.081 97.6137 98.8536 97.6137 98.8536L88.9905 85.3762" fill="#F7E4CD"/>
<path d="M137.761 68.415C137.761 68.415 138.389 60.2486 140.616 60.8768C142.843 61.5049 142.843 63.7321 142.843 63.7321C142.843 63.7321 137.475 67.1586 137.761 68.415Z" fill="#F7E4CD"/>
<path d="M160.147 38.4907C160.147 38.4907 155.692 39.4044 155.293 43.3449C154.893 47.2853 160.147 44.1444 160.946 43.8589" fill="#F7E4CD"/>
<path d="M127.538 38.7764C127.538 38.7764 121.599 39.5759 121.599 43.345C121.599 47.1141 128.338 46.8286 130.222 45.2295" fill="#F7E4CD"/>
<path d="M90.8751 56.3081C90.8751 56.3081 80.6528 50.0834 79.5677 56.0226C78.4827 61.9618 76.0841 66.2449 81.1667 72.4697L77.6831 71.3846L74.428 63.0469L73.343 54.9376L79.5677 48.4844L86.592 48.9983L90.6466 52.2535L90.8751 56.3081Z" fill="#F7E4CD"/>
<path d="M95.7292 39.29C95.7292 39.29 100.298 15.5331 123.484 10.9645C142.558 7.19539 152.609 11.764 156.378 16.1042C156.378 16.1042 139.36 -4.11195 123.198 2.05569C107.037 8.28044 95.1581 19.5878 95.4436 26.8405C95.9005 39.29 95.7292 39.29 95.7292 39.29Z" fill="#F7E4CD"/>
<path d="M158.262 18.7887C158.262 18.7887 150.438 18.5032 150.153 25.5274C150.153 25.5274 150.153 26.6125 150.667 27.6975C150.667 27.6975 156.892 20.6733 160.661 24.4424" fill="#F7E4CD"/>
<path d="M124.055 28.4396C124.055 28.4396 122.684 17.7033 113.547 23.9281C107.608 27.9827 108.179 33.6364 109.207 34.7214C110.292 35.8065 110.006 37.9766 110.806 36.4918C111.605 35.007 111.377 30.1528 114.346 28.7822C117.259 27.4116 122.17 25.9268 124.055 28.4396Z" fill="#F7E4CD"/>
<path d="M98.6988 101.309L73.3429 112.617C73.3429 112.617 83.8507 154.419 78.4826 167.383L74.7135 166.012L74.4279 150.079L67.4037 119.926L64.4341 111.589L90.875 93.771L98.6988 101.309Z" fill="#49728B"/>
<path d="M101.269 124.438L104.866 128.835V144.997H100.583C100.583 144.997 100.069 133.689 100.069 132.319C100.069 130.948 100.583 126.094 100.583 126.094" fill="#49728B"/>
<path d="M101.383 147.453L89.2189 147.967L92.7024 150.422L101.326 151.793" fill="#49728B"/>
<path d="M142.9 144.768L152.894 144.483L155.35 169.268L145.127 170.638L142.9 144.768Z" fill="#335061"/>
<path d="M145.584 144.768L160.661 143.969C160.661 143.969 166.885 128.321 166.885 127.522C166.885 126.722 172.254 104.85 172.254 104.85L160.09 92.172L157.634 90.002L151.181 96.4551V121.525L145.584 144.768Z" fill="#335061"/>
<path d="M152.323 142.884L142.9 144.768L144.271 152.307C147.754 153.906 153.694 149.623 153.694 149.623" fill="#49728B"/>
<path d="M152.609 95.6556L171.511 109.704L172.025 103.251L157.748 90.0591L152.609 95.6556Z" fill="#49728B"/>
<path d="M110.749 197.879L105.152 175.207L102.354 158.474L101.897 146.082L127.196 144.711H142.9L141.473 173.037L143.928 194.909L143.643 198.964L123.141 200.563L110.749 197.879Z" fill="white"/>
<path d="M139.417 144.483C139.417 144.483 138.046 172.523 142.101 192.51C142.101 192.51 133.991 197.65 122.17 198.964L144.842 198.164L147.526 196.565L144.271 152.364L143.414 142.884" fill="#DCD9D8"/>
<path d="M155.749 167.154L166.257 164.185L186.188 163.1L189.158 153.905L183.789 137.972L177.565 137.173L168.941 139.857L160.718 143.912L156.321 143.112L152.894 144.483" fill="white"/>
<path d="M155.578 161.729C155.578 161.729 162.602 158.474 163.688 158.76L160.718 143.912L164.201 142.541C164.201 142.541 166.657 156.59 166.657 158.189C166.657 158.189 181.734 158.988 183.104 158.988C183.104 158.988 186.359 152.763 185.56 146.31L188.529 154.933L188.815 159.788L184.475 166.241L179.621 167.326L171.511 167.04L168.827 163.557L159.404 164.927L156.435 166.012" fill="#DCD9D8"/>
<path d="M144.956 142.598L139.017 127.522L132.792 118.613C132.792 118.613 134.163 114.844 136.047 114.844H142.272L148.211 117.014L147.697 127.008L144.956 142.598Z" fill="white"/>
<path d="M146.155 137.459C146.155 137.459 138.617 122.896 138.617 120.726C138.617 120.726 139.988 117.471 141.872 118.27C143.757 119.07 147.812 121.24 147.812 121.24V116.1L138.617 114.216L132.392 115.015L142.9 139.914L145.07 140.2" fill="#DCD9D8"/>
<path d="M113.147 101.88L105.666 101.081L98.6417 98.9106V101.366L102.068 105.135L112.862 109.99" fill="white"/>
<path d="M101.097 102.68C101.097 102.68 109.435 106.163 112.176 105.364L112.462 108.619L104.924 107.02L100.355 103.765L101.097 102.68Z" fill="#DCD9D8"/>
<path d="M155.749 115.758C151.181 115.643 147.012 115.072 143.414 114.044C143.643 112.56 143.186 111.132 143.586 110.047C144.613 109.304 146.27 109.304 147.812 109.133C146.498 108.505 144.613 108.219 143.129 108.619C143.072 107.591 142.615 106.963 142.329 106.163C144.899 105.25 150.952 99.2534 154.379 101.195C156.035 102.166 156.72 107.534 156.835 110.218C156.949 112.388 156.606 114.558 155.749 115.758Z" fill="#D33833"/>
<path d="M155.749 115.758C151.181 115.643 147.012 115.072 143.414 114.044C143.643 112.56 143.186 111.132 143.586 110.047C144.613 109.304 146.27 109.304 147.812 109.133C146.498 108.505 144.613 108.219 143.129 108.619C143.072 107.591 142.615 106.963 142.329 106.163C144.899 105.25 150.952 99.2534 154.379 101.195C156.035 102.166 156.72 107.534 156.835 110.218C156.949 112.388 156.606 114.558 155.749 115.758Z" fill="black" stroke="#D33833" stroke-width="3.83693"/>
<path d="M133.877 108.276C133.877 108.619 133.877 108.962 133.82 109.304C132.392 110.218 130.108 110.218 128.509 111.018C130.793 111.132 132.621 111.703 134.22 112.445C134.163 113.302 134.163 114.216 134.106 115.072C131.479 116.843 129.08 119.527 125.996 121.24C124.512 122.039 119.429 124.095 117.887 123.695C117.03 123.467 116.916 122.382 116.574 121.354C115.831 119.184 114.118 115.643 113.947 112.331C113.775 108.162 113.318 101.138 117.83 101.995C121.485 102.68 125.711 104.336 128.509 105.878C130.279 106.906 131.25 108.048 133.877 108.276Z" fill="#D33833"/>
<path d="M133.877 108.276C133.877 108.619 133.877 108.962 133.82 109.304C132.392 110.218 130.108 110.218 128.509 111.018C130.793 111.132 132.621 111.703 134.22 112.445C134.163 113.302 134.163 114.216 134.106 115.072C131.479 116.843 129.08 119.527 125.996 121.24C124.512 122.039 119.429 124.095 117.887 123.695C117.03 123.467 116.916 122.382 116.574 121.354C115.831 119.184 114.118 115.643 113.947 112.331C113.775 108.162 113.318 101.138 117.83 101.995C121.485 102.68 125.711 104.336 128.509 105.878C130.279 106.906 131.25 108.048 133.877 108.276Z" fill="black" stroke="#D33833" stroke-width="3.83693"/>
<path d="M136.447 113.245C136.047 110.96 135.59 110.332 135.762 108.334C141.872 104.279 142.957 115.301 136.447 113.245Z" fill="#D33833"/>
<path d="M136.447 113.245C136.047 110.96 135.59 110.332 135.762 108.334C141.872 104.279 142.957 115.301 136.447 113.245Z" fill="black" stroke="#D33833" stroke-width="3.83693"/>
<path d="M145.242 115.072C145.242 115.072 143.357 112.388 144.728 111.589C146.098 110.789 147.412 111.589 148.211 110.218C149.011 108.847 148.211 108.048 148.497 106.449C148.782 104.85 150.096 104.564 151.466 104.279C152.837 103.993 156.606 103.479 157.12 104.793L155.521 99.9386L152.266 98.8535L142.044 104.793L141.53 107.762V113.702" fill="#EF3D3A"/>
<path d="M116.916 123.981C116.574 119.755 116.231 115.586 115.888 111.36C115.317 105.078 117.373 106.163 122.855 106.163C123.712 106.163 127.995 107.134 128.281 107.762C129.765 110.789 125.825 110.104 129.994 112.388C133.477 114.273 139.702 111.246 138.274 106.963C137.475 105.992 134.163 106.677 132.963 106.049C130.85 104.964 128.737 103.879 126.624 102.794C123.94 101.423 117.773 99.3675 114.917 101.309C107.665 106.22 115.374 118.556 117.944 123.695" fill="#EF3D3A"/>
<path d="M124.055 28.4397C116.688 26.7265 113.033 31.5235 110.806 36.4919C108.807 36.035 109.606 33.2938 110.12 31.9233C111.434 28.3255 116.745 23.4713 121.085 24.1566C122.913 24.385 125.425 26.0983 124.055 28.4397Z" fill="#231F20"/>
<path d="M159.861 36.7773H160.204C161.86 40.2038 163.288 43.8587 165.401 46.9425C163.973 50.2548 154.779 53.1102 154.893 47.2852C156.892 46.4286 160.318 47.1139 162.088 45.9717C161.061 43.1734 159.633 40.7749 159.861 36.7773Z" fill="#231F20"/>
<path d="M127.767 36.8916C129.366 39.8041 129.88 42.8308 132.107 45.0009C133.135 45.9717 135.076 47.171 134.106 49.9122C133.877 50.5404 132.221 51.9681 131.25 52.2536C127.767 53.2815 119.6 52.482 122.341 48.0847C125.254 48.1989 129.137 49.9693 131.307 47.8563C129.651 45.2293 126.682 39.9754 127.767 36.8916Z" fill="#231F20"/>
<path d="M158.548 66.2452C153.294 69.6145 147.412 73.3265 138.731 72.4699C136.904 70.8709 136.162 67.2731 137.989 64.9317C138.903 66.5307 138.332 69.5003 140.959 69.9572C145.87 70.8138 151.581 66.9305 155.121 65.617C157.291 61.905 154.95 60.5915 152.951 58.193C148.897 53.3388 143.528 47.2854 143.7 40.0327C145.356 38.8334 145.47 41.8601 145.699 42.3741C147.812 47.2854 153.123 53.6243 156.949 57.8503C157.92 58.8783 159.462 59.9062 159.633 60.5915C160.147 62.5332 158.319 64.9317 158.548 66.2452Z" fill="#231F20"/>
<path d="M88.9904 62.7044C87.3343 61.7336 86.9346 57.6218 84.9929 57.5076C82.1946 57.3363 82.7086 62.8758 82.7086 66.1309C80.824 64.4177 80.4814 59.0495 81.852 56.3084C80.253 55.5089 79.5677 57.165 78.6539 57.7361C79.8532 49.4554 90.8179 53.9098 88.9904 62.7044Z" fill="#231F20"/>
<path d="M161.86 69.7285C159.404 74.4114 155.921 79.5511 148.725 79.7224C148.554 78.2376 148.44 75.8962 148.725 74.9824C154.265 74.4114 157.691 71.6131 161.86 69.7285Z" fill="#231F20"/>
<path d="M127.367 72.7554C131.936 75.1539 140.388 75.4394 146.669 75.2681C147.012 76.6387 147.012 78.3519 147.012 80.0081C138.96 80.3507 129.48 78.3519 127.367 72.7554Z" fill="#231F20"/>
<path d="M126.51 77.21C129.708 85.2051 140.616 84.2913 149.81 84.0629C149.411 85.0908 148.554 86.3472 147.412 86.747C144.442 87.9462 136.333 88.86 132.221 86.6899C129.651 85.3193 127.938 82.1783 126.51 80.3509C125.882 79.4943 122.456 77.2671 126.51 77.21Z" fill="#231F20"/>
<path d="M158.148 121.24C154.436 127.636 150.838 134.203 146.441 139.8C148.268 134.375 149.068 125.237 149.353 118.27C153.237 116.443 156.549 118.67 158.148 121.24Z" fill="#81B0C4"/>
<path d="M178.193 144.197C174.024 145.054 171.112 149.109 167 148.823C169.284 145.682 173.167 144.311 178.193 144.197Z" fill="#231F20"/>
<path d="M180.02 150.707C176.594 151.05 172.596 151.621 169.17 151.335C170.826 148.823 177.108 149.736 180.02 150.707Z" fill="#231F20"/>
<path d="M181.22 156.361C177.393 156.418 172.653 156.361 168.999 156.076C171.169 153.734 178.764 155.219 181.22 156.361Z" fill="#231F20"/>
<path d="M150.952 171.78C151.524 176.577 153.408 181.431 153.18 186.685C151.067 187.371 149.867 187.999 147.012 187.999C146.841 183.544 146.212 176.691 146.384 172.408C147.754 172.522 149.81 171.437 150.952 171.78Z" fill="#DCD9D8"/>
<path d="M144.785 100.967C142.843 102.223 141.244 103.765 139.36 105.136C135.248 105.364 133.021 104.85 130.051 102.509C130.108 102.337 130.394 102.394 130.394 102.166C134.791 104.108 140.387 101.367 144.785 100.967Z" fill="#F0D6B7"/>
<path d="M121.827 130.834C123.027 125.637 127.767 122.896 132.05 120.041C136.447 125.637 139.131 132.833 142.101 139.8C135.076 137.687 127.938 134.317 121.827 130.834Z" fill="#81B0C4"/>
<path d="M146.384 172.466C146.212 176.749 146.784 183.545 147.012 188.056C149.867 188.056 151.067 187.428 153.18 186.743C153.408 181.489 151.523 176.634 150.952 171.837C149.81 171.438 147.754 172.523 146.384 172.466ZM102.297 148.252C104.181 165.441 106.865 179.833 111.834 195.08C122.855 198.45 136.104 198.735 145.87 195.708C144.099 187.142 144.842 176.692 143.814 167.497C143.014 160.587 143.414 153.677 142.329 146.653C130.508 144.197 113.832 146.082 102.297 148.252ZM145.127 146.767C145.013 154.134 145.47 161.444 146.041 168.811C148.897 168.411 150.781 168.125 153.408 167.497C152.551 160.416 152.666 152.364 150.895 146.082C148.897 146.139 147.126 146.082 145.127 146.767ZM159.461 145.568C158.091 145.282 156.549 145.568 155.293 145.568C155.921 151.564 157.348 158.189 157.862 164.528C159.861 164.585 160.946 163.614 162.602 163.328C162.717 157.789 162.146 150.136 159.461 145.568ZM181.22 165.441C185.446 164.413 188.072 159.274 186.873 153.963C186.074 150.422 184.703 143.683 183.161 141.399C182.076 139.743 179.049 137.516 176.594 139.058C172.653 141.57 165.743 142.313 162.888 145.339C164.316 150.136 164.773 156.647 165.344 162.7C170.255 162.986 176.251 161.33 180.363 163.1C177.508 164.014 173.853 164.014 171.397 165.384C173.453 166.355 178.136 166.184 181.22 165.441ZM142.044 139.8C139.074 132.833 136.39 125.637 131.993 120.041C127.71 122.896 123.027 125.637 121.77 130.834C127.938 134.318 135.076 137.687 142.044 139.8ZM149.353 118.27C149.068 125.237 148.268 134.375 146.441 139.8C150.838 134.146 154.436 127.636 158.148 121.24C156.549 118.67 153.237 116.443 149.353 118.27ZM141.073 115.358C139.417 115.187 137.989 117.299 135.819 116.386C135.305 116.957 134.848 117.528 134.334 118.099C139.131 123.924 141.358 132.148 145.07 138.943C147.069 132.376 146.841 125.237 147.298 118.099C144.556 118.213 143.014 115.529 141.073 115.358ZM135.762 108.334C135.59 110.332 136.047 110.961 136.447 113.245C142.957 115.301 141.872 104.279 135.762 108.334ZM128.509 105.935C125.711 104.393 121.485 102.737 117.83 102.052C113.318 101.195 113.775 108.219 113.947 112.388C114.118 115.7 115.831 119.184 116.574 121.411C116.916 122.439 117.03 123.524 117.887 123.753C119.429 124.095 124.569 122.097 125.996 121.297C129.08 119.641 131.479 116.957 134.106 115.129C134.163 114.273 134.163 113.359 134.22 112.502C132.621 111.703 130.85 111.189 128.509 111.075C130.051 110.275 132.392 110.275 133.82 109.362C133.82 109.019 133.82 108.676 133.877 108.334C131.25 108.048 130.279 106.906 128.509 105.935ZM101.668 101.081C99.327 103.479 108.236 106.677 111.034 106.849C111.034 105.364 111.891 103.936 111.719 102.851C108.35 102.28 103.953 102.68 101.668 101.081ZM130.451 102.166C130.451 102.394 130.165 102.337 130.108 102.509C133.135 104.85 135.362 105.364 139.417 105.136C141.244 103.822 142.9 102.223 144.842 100.967C140.387 101.366 134.791 104.108 130.451 102.166ZM156.835 110.161C156.72 107.534 156.035 102.109 154.379 101.138C150.952 99.1392 144.899 105.193 142.329 106.106C142.615 106.906 143.072 107.534 143.129 108.562C144.671 108.162 146.498 108.448 147.811 109.076C146.27 109.247 144.613 109.247 143.586 109.99C143.243 111.075 143.7 112.502 143.414 113.987C147.012 115.015 151.181 115.529 155.749 115.7C156.606 114.558 156.949 112.388 156.835 110.161ZM97.7279 103.365C96.9855 102.851 92.0172 96.398 91.3319 96.6836C82.3659 100.224 73.9711 106.335 66.49 112.16C73.6284 127.522 76.5409 146.31 77.0549 164.413C85.2213 168.24 92.4169 173.779 103.553 174.35C102.239 165.27 101.097 157.104 100.355 148.537C97.5566 147.338 93.5591 148.595 90.9321 148.195C90.9321 145.054 94.9297 146.824 95.2723 144.711C95.5007 143.112 93.0451 142.998 93.8446 140.485C95.9005 141.228 96.9855 142.884 99.1556 143.512C101.154 139.172 99.1556 131.462 99.4412 127.807C99.4983 127.122 99.7838 124.038 101.326 124.552C102.696 125.009 101.269 132.833 101.383 136.259C101.497 139.457 100.983 142.484 102.297 144.483C113.033 142.998 123.94 142.084 135.59 141.742C133.021 140.657 129.994 139.629 126.682 137.744C124.854 136.716 119.2 134.603 118.687 132.89C117.83 130.149 120.857 128.721 121.371 126.38C115.945 129.349 114.917 123.524 113.604 119.47C112.462 115.758 111.776 112.959 111.491 110.846C106.751 108.448 101.725 106.221 97.7279 103.365ZM152.095 97.426C159.576 93.8282 160.946 110.961 157.977 116.5C158.434 118.156 159.975 118.784 160.604 120.269C156.435 127.75 151.809 134.717 147.526 142.084C150.667 140.086 155.235 141.742 158.948 140.257C160.318 139.743 161.289 136.602 162.317 134.089C165.172 127.236 168.142 118.556 169.455 112.046C169.741 110.561 170.597 107.306 170.369 105.992C170.026 103.594 166.828 101.823 165.172 100.396C162.146 97.6544 160.261 95.313 157.063 92.7431C155.864 94.6277 153.123 95.8841 152.095 97.426ZM80.6527 31.1238C77.112 35.0642 77.8544 42.374 78.2542 47.628C84.7074 43.5733 93.2164 47.9706 93.1593 54.8235C96.2431 54.7664 94.3015 50.9973 93.7304 48.5417C91.9029 40.6037 96.8142 32.0375 93.9588 24.7848C88.4194 25.2417 83.9079 27.4689 80.6527 31.1238ZM106.123 8.33779C98.0706 10.6221 87.7341 16.5042 84.4218 23.7569C86.9917 23.3571 88.762 22.1008 91.2748 21.9295C92.2456 21.8723 93.502 22.3292 94.587 22.0437C96.7571 21.4726 98.6417 16.5613 100.298 14.7339C101.897 12.9635 103.838 12.164 105.152 10.565C106.009 10.1652 107.265 10.1652 107.322 8.90887C106.979 8.50912 106.58 8.22358 106.123 8.33779ZM148.097 10.5079C139.702 5.76794 125.539 2.22726 116.631 6.68167C109.435 10.2795 99.7267 16.2187 96.4145 23.6998C99.4983 30.9525 95.5007 37.577 95.2152 44.9439C95.101 48.8843 97.0426 52.2537 97.214 56.5368C96.1289 58.3071 92.9309 58.4784 90.7037 58.3642C89.9613 54.5951 88.6478 50.3691 84.7645 49.9123C79.2821 49.2841 75.2275 53.8527 74.999 58.5927C74.7135 64.1892 79.2821 73.4407 85.7924 72.8125C88.3051 72.5841 88.9333 70.0713 91.6745 70.0713C93.1593 73.0409 89.3902 73.9547 88.9904 76.0676C88.8762 76.6387 89.276 78.7517 89.5615 79.7797C90.7608 84.6338 93.3877 90.9728 95.9576 94.6848C99.2698 99.4247 105.723 100.11 112.69 100.567C113.947 97.8828 118.515 98.1113 121.485 98.7966C117.887 97.3689 114.575 93.9424 111.834 90.9157C108.693 87.4321 105.495 83.7201 105.323 79.1515C111.32 87.4321 116.231 94.6848 127.081 98.3397C135.305 101.081 144.899 97.0833 151.238 92.6289C153.865 90.8015 155.407 87.8319 157.291 85.2049C164.259 75.1539 167.514 60.877 166.828 46.9998C166.543 41.289 166.543 35.5782 164.601 31.752C162.602 27.7544 155.807 24.0995 151.809 27.7544C151.067 23.814 155.121 21.4155 159.861 22.8432C156.492 18.4459 152.951 13.2491 148.097 10.5079ZM163.745 139.629C170.312 136.373 182.533 130.891 186.588 139.629C188.13 142.884 189.9 148.309 190.642 151.678C191.727 156.361 189.443 166.298 184.589 167.84C180.306 169.21 175.337 169.153 170.198 168.125C169.57 167.611 168.941 166.755 168.427 165.841C164.772 165.727 161.289 166.012 158.434 167.554C158.719 170.296 156.892 170.695 155.121 171.266C153.865 176.349 157.691 182.973 156.777 187.542C156.149 190.854 152.095 191.368 149.125 191.939C149.011 193.767 149.239 195.309 149.468 196.851C148.782 199.363 145.756 200.791 142.843 201.134C133.306 202.276 118.858 202.79 109.721 199.478C107.151 193.196 105.152 185.6 103.039 178.462C94.1301 179.433 86.8775 174.636 80.0816 171.438C77.7402 170.353 74.4851 169.724 73.5713 167.84C72.7147 166.012 73.0574 162.529 72.8289 159.274C72.315 150.879 71.801 142.77 69.6309 134.203C68.6601 130.32 66.8897 126.951 65.6905 123.239C64.5483 119.812 62.6066 115.529 62.0927 112.103C61.3503 107.02 66.1473 106.735 69.174 104.507C73.914 101.081 77.626 99.1963 82.7657 96.1125C84.3076 95.1988 88.8762 92.9145 89.3902 91.8294C90.4181 89.7164 87.6199 86.7468 86.8775 85.0907C85.6782 82.4637 85.05 80.2365 84.8787 77.6667C80.5956 76.9814 77.2833 74.4115 75.3417 71.5561C72.0865 66.7591 69.8022 57.9074 72.6576 51.2258C72.886 50.7118 73.9711 49.6267 74.1424 48.8272C74.4851 47.2282 73.5142 45.1152 73.4571 43.402C73.1716 34.6645 74.9419 27.1263 80.824 24.4993C83.2226 14.9623 91.7887 11.8214 99.8409 7.08142C102.868 5.31108 106.18 4.16892 109.606 2.91255C121.885 -1.59897 140.787 -0.742348 151.01 6.96721C155.35 10.2224 162.26 17.1324 164.715 22.1579C171.283 35.3498 170.769 57.4505 166.2 73.5549C165.572 75.725 164.715 78.8659 163.459 81.4929C162.602 83.3203 159.918 86.9181 160.204 88.5172C160.547 90.1733 166.372 94.5706 167.628 95.7698C169.855 97.9399 174.138 100.795 174.481 103.537C174.881 106.449 173.224 110.447 172.368 113.245C169.627 122.611 166.885 131.234 163.745 139.629Z" fill="#231F20"/>
<path d="M120.057 74.7542C120.4 74.2973 122.341 73.5549 125.083 74.8684C125.083 74.8684 121.827 75.3824 122.113 80.8076L120.742 80.5221C120.8 80.5792 119.372 75.6679 120.057 74.7542Z" fill="#F7E4CD"/>
<path d="M143.7 121.126C143.7 121.925 143.014 122.611 142.215 122.611C141.415 122.611 140.73 121.925 140.73 121.126C140.73 120.326 141.415 119.641 142.215 119.641C143.072 119.641 143.7 120.326 143.7 121.126Z" fill="#1D1919"/>
<path d="M145.185 128.036C145.185 128.835 144.499 129.52 143.7 129.52C142.9 129.52 142.215 128.835 142.215 128.036C142.215 127.236 142.9 126.551 143.7 126.551C144.556 126.551 145.185 127.179 145.185 128.036Z" fill="#1D1919"/>
<path d="M67.4037 215.411C66.9469 215.468 66.5471 215.525 66.2045 215.582C65.8618 215.639 65.5192 215.696 65.0623 215.81C64.5483 215.925 64.2628 216.153 64.1486 216.496C64.0344 216.838 63.9202 217.181 63.9202 217.638V231.572C63.9202 232.828 63.6346 234.028 63.1207 235.113C62.6067 236.198 61.9214 237.054 61.0077 237.797C60.0939 238.482 59.066 239.053 57.9238 239.396C56.7817 239.739 55.5824 239.967 54.3261 239.967C52.0988 239.967 50.3285 239.453 48.9579 238.368C47.5873 237.283 46.902 235.855 46.902 233.971C46.902 232.886 47.1876 231.972 47.8158 231.229C48.4439 230.487 49.3006 230.144 50.3856 230.144C51.4136 230.144 52.2131 230.43 52.8413 231.058C53.4694 231.686 53.755 232.429 53.755 233.285C53.755 234.028 53.4694 234.77 52.9555 235.398C52.4415 236.027 51.8133 236.655 51.128 237.169V237.397C51.2422 237.626 51.4707 237.854 51.8133 238.025C52.156 238.197 52.5557 238.254 52.8984 238.254C54.3261 238.254 55.4682 237.74 56.2677 236.712C57.0672 235.684 57.467 234.142 57.467 232.086V217.809C57.467 217.409 57.4099 217.01 57.2957 216.724C57.1814 216.439 56.8388 216.21 56.3248 215.982C55.9822 215.81 55.5253 215.696 55.0113 215.582C54.4974 215.468 54.0976 215.411 53.755 215.353V213.983H67.2324V215.411H67.4037Z" fill="#231F20"/>
<path d="M88.5336 235.056C88.1338 235.741 87.6199 236.369 87.0488 236.998C86.4777 237.626 85.7924 238.083 85.05 238.539C84.2505 238.996 83.451 239.339 82.6515 239.567C81.852 239.796 80.8812 239.91 79.8532 239.91C78.0829 239.91 76.5981 239.682 75.2846 239.168C74.0282 238.654 72.9432 238.026 72.1437 237.169C71.287 236.312 70.716 235.341 70.2591 234.199C69.8594 233.057 69.6309 231.801 69.6309 230.487C69.6309 229.288 69.8594 228.089 70.3162 227.004C70.7731 225.919 71.4013 224.891 72.2008 224.034C73.0003 223.177 74.0282 222.492 75.2846 221.978C76.541 221.464 77.9116 221.179 79.3964 221.179C81.0525 221.179 82.4231 221.407 83.5081 221.807C84.5932 222.207 85.4498 222.778 86.1351 223.463C86.8204 224.148 87.2772 224.948 87.6199 225.862C87.9054 226.775 88.0767 227.746 88.0767 228.774V229.916H76.027C76.027 232.372 76.4839 234.199 77.4547 235.456C78.3684 236.712 79.9103 237.34 81.9091 237.34C83.0513 237.34 84.0221 237.055 84.9358 236.426C85.8495 235.798 86.5919 235.056 87.2201 234.085L88.5336 235.056ZM81.7378 228.26C81.7378 227.575 81.6807 226.832 81.6236 226.09C81.5665 225.348 81.4522 224.719 81.2238 224.263C80.9954 223.691 80.7669 223.292 80.3672 223.006C80.0245 222.721 79.5677 222.606 79.0537 222.606C78.14 222.606 77.3976 223.063 76.8836 223.977C76.3125 224.891 76.027 226.376 75.9699 228.374L81.7378 228.26Z" fill="#231F20"/>
<path d="M113.718 239.282H102.982V237.968C103.21 237.968 103.496 237.911 103.781 237.854C104.124 237.797 104.353 237.74 104.524 237.683C104.752 237.569 104.924 237.34 105.038 237.112C105.152 236.883 105.209 236.484 105.209 236.027V227.689C105.209 226.49 104.981 225.576 104.524 224.948C104.067 224.32 103.439 224.034 102.525 224.034C102.068 224.034 101.611 224.091 101.212 224.262C100.812 224.377 100.412 224.605 100.012 224.891C99.6697 225.119 99.3841 225.348 99.1557 225.633C98.9273 225.862 98.7559 226.09 98.6417 226.318V235.855C98.6417 236.255 98.6988 236.598 98.8131 236.883C98.9273 237.169 99.1557 237.397 99.3841 237.512C99.5555 237.626 99.7839 237.74 100.069 237.797C100.355 237.854 100.641 237.911 100.926 237.968V239.282H90.0756V237.968C90.3611 237.968 90.6466 237.911 90.9893 237.854C91.2748 237.797 91.5604 237.74 91.7888 237.683C92.1885 237.569 92.417 237.34 92.5883 237.055C92.7025 236.769 92.8167 236.426 92.8167 235.97V225.576C92.8167 225.233 92.7025 224.834 92.5312 224.491C92.3599 224.148 92.0743 223.863 91.7888 223.634C91.5604 223.52 91.3319 223.349 90.9893 223.292C90.6466 223.177 90.304 223.12 89.9042 223.12V221.807L98.4133 221.35L98.6988 221.636V224.205H98.7559C99.0986 223.92 99.4983 223.577 99.9552 223.12C100.412 222.721 100.869 222.378 101.269 222.092C101.726 221.807 102.297 221.578 102.982 221.35C103.667 221.122 104.467 221.064 105.266 221.064C107.208 221.064 108.636 221.636 109.606 222.721C110.577 223.806 111.034 225.29 111.034 227.118V235.855C111.034 236.312 111.091 236.655 111.205 236.883C111.32 237.169 111.605 237.34 111.948 237.512C112.119 237.569 112.348 237.683 112.633 237.74C112.919 237.797 113.204 237.854 113.604 237.911V239.282H113.718Z" fill="#231F20"/>
<path d="M138.275 239.282H129.88C128.852 237.454 127.881 235.912 127.024 234.656C126.168 233.4 125.368 232.2 124.626 231.172L123.598 232.086V235.97C123.598 236.369 123.655 236.769 123.769 236.997C123.883 237.283 124.112 237.454 124.512 237.626C124.74 237.74 124.968 237.797 125.254 237.854C125.539 237.911 125.825 237.968 126.111 237.968V239.282H115.032V237.968C115.317 237.968 115.603 237.911 115.945 237.854C116.231 237.797 116.516 237.74 116.745 237.683C117.145 237.569 117.373 237.34 117.544 237.055C117.659 236.769 117.773 236.426 117.773 235.97V216.096C117.773 215.696 117.659 215.297 117.487 214.897C117.316 214.497 117.088 214.154 116.745 213.926C116.516 213.812 116.174 213.64 115.717 213.583C115.26 213.469 114.86 213.412 114.461 213.412V212.098L123.312 211.642L123.598 211.927V230.316C124.454 229.516 125.482 228.603 126.567 227.575C127.652 226.547 128.566 225.69 129.194 225.005C129.594 224.605 129.823 224.32 129.823 224.091C129.88 223.863 129.88 223.748 129.88 223.691C129.88 223.463 129.708 223.292 129.309 223.177C128.909 223.063 128.395 222.892 127.595 222.778V221.521H136.618V222.778C135.419 223.12 134.505 223.406 133.877 223.691C133.249 223.977 132.564 224.377 131.821 224.834C131.307 225.176 130.851 225.519 130.394 225.861C129.937 226.204 129.423 226.661 128.795 227.175C129.937 228.888 131.022 230.43 131.993 231.858C132.963 233.285 133.991 234.827 135.076 236.426C135.419 236.997 135.876 237.34 136.447 237.569C137.018 237.74 137.532 237.854 138.103 237.911V239.282H138.275Z" fill="#231F20"/>
<path d="M149.696 239.282H138.446V237.968C138.731 237.968 139.074 237.911 139.36 237.854C139.645 237.797 139.931 237.74 140.102 237.683C140.502 237.569 140.73 237.34 140.902 237.055C141.073 236.769 141.13 236.426 141.13 235.97V225.576C141.13 225.176 141.016 224.776 140.844 224.491C140.673 224.148 140.445 223.92 140.159 223.748C139.931 223.634 139.645 223.463 139.188 223.349C138.731 223.235 138.332 223.12 137.989 223.12V221.807L146.727 221.35L147.012 221.635V235.798C147.012 236.198 147.126 236.541 147.298 236.883C147.469 237.169 147.754 237.397 148.04 237.511C148.268 237.626 148.554 237.74 148.839 237.797C149.125 237.854 149.411 237.911 149.753 237.968V239.282H149.696ZM147.126 215.011C147.126 215.925 146.784 216.667 146.098 217.295C145.413 217.923 144.556 218.266 143.643 218.266C142.672 218.266 141.872 217.923 141.13 217.295C140.445 216.667 140.102 215.868 140.102 215.011C140.102 214.097 140.445 213.355 141.13 212.67C141.815 212.041 142.672 211.699 143.643 211.699C144.614 211.699 145.413 212.041 146.098 212.67C146.784 213.298 147.126 214.097 147.126 215.011Z" fill="#231F20"/>
<path d="M174.881 239.282H164.144V237.968C164.373 237.968 164.658 237.911 164.944 237.854C165.286 237.797 165.515 237.74 165.686 237.683C165.915 237.569 166.086 237.34 166.2 237.112C166.314 236.883 166.372 236.484 166.372 236.027V227.689C166.372 226.49 166.143 225.576 165.686 224.948C165.229 224.32 164.601 224.034 163.687 224.034C163.231 224.034 162.774 224.091 162.374 224.262C161.974 224.434 161.574 224.605 161.175 224.891C160.832 225.119 160.547 225.348 160.318 225.633C160.09 225.862 159.918 226.09 159.804 226.318V235.855C159.804 236.255 159.861 236.598 159.975 236.883C160.09 237.169 160.318 237.397 160.547 237.512C160.718 237.626 160.946 237.74 161.232 237.797C161.517 237.854 161.803 237.911 162.088 237.968V239.282H151.238V237.968C151.524 237.968 151.809 237.911 152.152 237.854C152.437 237.797 152.723 237.74 152.951 237.683C153.351 237.569 153.579 237.34 153.751 237.055C153.865 236.769 153.979 236.426 153.979 235.97V225.576C153.979 225.233 153.865 224.834 153.694 224.491C153.522 224.148 153.237 223.863 152.951 223.634C152.723 223.52 152.494 223.349 152.152 223.292C151.809 223.177 151.466 223.12 151.067 223.12V221.807L159.576 221.35L159.861 221.636V224.205H159.918C160.261 223.92 160.661 223.577 161.118 223.12C161.574 222.721 162.031 222.378 162.431 222.092C162.888 221.807 163.459 221.578 164.144 221.35C164.83 221.122 165.629 221.064 166.429 221.064C168.37 221.064 169.798 221.636 170.769 222.721C171.74 223.806 172.197 225.29 172.197 227.118V235.855C172.197 236.312 172.254 236.655 172.368 236.883C172.482 237.169 172.768 237.34 173.11 237.512C173.282 237.569 173.51 237.683 173.796 237.74C174.081 237.797 174.367 237.854 174.766 237.911V239.282H174.881Z" fill="#231F20"/>
<path d="M184.76 239.91C183.618 239.91 182.476 239.739 181.391 239.396C180.306 239.053 179.449 238.711 178.821 238.311L178.307 239.51H176.937L176.708 232.886H178.022C178.193 233.4 178.478 234.028 178.935 234.713C179.335 235.399 179.849 235.97 180.363 236.541C180.934 237.055 181.562 237.512 182.305 237.911C183.047 238.254 183.789 238.482 184.589 238.482C185.674 238.482 186.474 238.254 186.987 237.854C187.501 237.454 187.787 236.769 187.787 235.913C187.787 235.456 187.673 235.056 187.444 234.713C187.216 234.428 186.873 234.142 186.474 233.914C186.017 233.685 185.503 233.457 184.932 233.286C184.361 233.114 183.675 232.943 182.876 232.657C182.076 232.429 181.391 232.201 180.82 231.915C180.249 231.687 179.621 231.287 179.049 230.773C178.536 230.316 178.079 229.745 177.793 229.117C177.45 228.489 177.336 227.689 177.336 226.775C177.336 225.119 178.022 223.749 179.449 222.721C180.877 221.693 182.704 221.179 184.989 221.179C186.074 221.179 187.045 221.293 187.958 221.521C188.872 221.75 189.614 221.978 190.243 222.264L190.642 221.236H192.013L192.299 227.289H191.042C190.642 226.033 189.9 225.005 188.929 224.091C187.901 223.177 186.816 222.721 185.674 222.721C184.76 222.721 184.018 222.892 183.504 223.292C182.99 223.691 182.704 224.205 182.704 224.891C182.704 225.804 183.104 226.433 183.847 226.832C184.589 227.232 185.674 227.632 187.045 227.975C189.158 228.546 190.699 229.288 191.727 230.202C192.698 231.173 193.212 232.372 193.212 233.8C193.212 235.741 192.47 237.283 190.928 238.311C189.215 239.339 187.216 239.91 184.76 239.91Z" fill="#231F20"/>
</svg>
