<svg width="24" height="24" viewBox="0 0 24 24" fill="none" xmlns="http://www.w3.org/2000/svg">
<path d="M18.3375 18.3375H15.6705V14.16C15.6705 13.164 15.6525 11.8815 14.283 11.8815C12.894 11.8815 12.681 12.9675 12.681 14.0865V18.3375H10.014V9.74699H12.5745V10.9215H12.6105C13.1325 10.0305 14.1045 9.49649 15.1365 9.53399C17.8395 9.53399 18.339 11.3115 18.339 13.626L18.3375 18.336V18.3375ZM7.005 8.57249C6.59531 8.57052 6.20294 8.407 5.9131 8.11745C5.62327 7.82789 5.45937 7.43568 5.457 7.02599C5.457 6.17699 6.156 5.47799 7.005 5.47799C7.854 5.47799 8.5515 6.17699 8.553 7.02599C8.553 7.87499 7.854 8.57249 7.005 8.57249ZM8.3385 18.3375H5.6685V9.74699H8.3385V18.3375ZM19.665 2.99999H4.3275C3.97973 2.99797 3.64521 3.13328 3.39663 3.37652C3.14806 3.61975 3.00553 3.95126 3 4.29899V19.701C3.00553 20.0487 3.14806 20.3802 3.39663 20.6235C3.64521 20.8667 3.97973 21.002 4.3275 21H19.6665C20.0151 21.0028 20.3507 20.868 20.6004 20.6247C20.8501 20.3815 20.9937 20.0495 21 19.701V4.29749C20.9937 3.94923 20.85 3.61758 20.6002 3.37482C20.3504 3.13206 20.0148 2.99787 19.6665 3.00149L19.665 2.99999Z" fill="white"/>
</svg>
