<svg width="240" height="240" viewBox="0 0 240 240" fill="none" xmlns="http://www.w3.org/2000/svg">
<g clip-path="url(#clip0_60_732)">
<path d="M239.019 135.237C247.417 69.4891 200.985 9.37994 135.357 0.981451C69.7291 -7.41704 9.37994 39.0146 0.981451 104.643C-7.41704 170.271 39.0146 230.5 104.643 239.019C170.391 247.417 230.5 200.985 239.019 135.237Z" fill="#FF6C37"/>
<path d="M163.312 77.0477L112.681 127.679L98.4039 113.401C148.195 63.6101 153.114 67.9294 163.312 77.0477Z" fill="white"/>
<path d="M112.681 128.878C112.321 128.878 112.081 128.758 111.841 128.518L97.444 114.241C96.9641 113.761 96.9641 113.041 97.444 112.561C148.075 61.9304 153.354 66.7296 164.032 76.3278C164.272 76.5678 164.392 76.8077 164.392 77.1677C164.392 77.5276 164.272 77.7676 164.032 78.0075L113.401 128.518C113.281 128.758 112.921 128.878 112.681 128.878ZM100.084 113.401L112.681 125.999L161.512 77.1677C152.634 69.2491 146.635 66.8495 100.084 113.401Z" fill="#FF6C37"/>
<path d="M127.199 142.196L113.401 128.398L164.032 77.7676C177.59 91.4451 157.313 113.641 127.199 142.196Z" fill="white"/>
<path d="M127.199 143.396C126.839 143.396 126.599 143.276 126.359 143.036L112.561 129.238C112.321 128.998 112.321 128.758 112.321 128.399C112.321 128.039 112.441 127.799 112.681 127.559L163.312 76.9278C163.792 76.4479 164.512 76.4479 164.992 76.9278C168.111 79.8073 169.791 83.8866 169.671 88.0858C169.431 101.403 154.314 118.32 128.159 143.036C127.799 143.276 127.439 143.396 127.199 143.396ZM115.081 128.399C122.76 136.197 125.999 139.317 127.199 140.516C147.355 121.32 166.912 101.643 167.032 88.0858C167.152 84.9664 165.952 81.8469 163.912 79.4474L115.081 128.399Z" fill="#FF6C37"/>
<path d="M98.6438 113.761L108.842 123.959C109.082 124.199 109.082 124.439 108.842 124.679C108.722 124.799 108.722 124.799 108.602 124.799L87.4859 129.358C86.406 129.478 85.4462 128.758 85.2063 127.679C85.0863 127.079 85.3262 126.479 85.6862 126.119L97.924 113.881C98.1639 113.641 98.5239 113.521 98.6438 113.761Z" fill="white"/>
<path d="M87.1259 130.558C85.3262 130.558 84.0065 129.119 84.0065 127.319C84.0065 126.479 84.3664 125.639 84.9663 125.039L97.2041 112.801C97.924 112.202 98.8838 112.202 99.6037 112.801L109.802 123C110.522 123.6 110.522 124.679 109.802 125.399C109.562 125.639 109.322 125.759 108.962 125.879L87.8458 130.438C87.6058 130.438 87.3659 130.558 87.1259 130.558ZM98.2839 115.081L86.526 126.839C86.2861 127.079 86.1661 127.439 86.406 127.799C86.526 128.159 86.886 128.279 87.2459 128.159L107.042 123.839L98.2839 115.081Z" fill="#FF6C37"/>
<path d="M190.067 48.9731C182.389 41.5344 170.031 41.7743 162.592 49.5729C155.154 57.3715 155.394 69.6093 163.192 77.048C169.551 83.1669 179.149 84.2467 186.708 79.6875L173.03 66.01L190.067 48.9731Z" fill="white"/>
<path d="M176.63 83.6466C165.232 83.6466 155.994 74.4082 155.994 63.0103C155.994 51.6124 165.232 42.374 176.63 42.374C181.909 42.374 187.068 44.4137 190.907 48.133C191.147 48.3729 191.267 48.6129 191.267 48.9728C191.267 49.3328 191.147 49.5727 190.907 49.8127L174.71 66.0098L187.428 78.7275C187.908 79.2074 187.908 79.9273 187.428 80.4072C187.308 80.5271 187.308 80.5271 187.188 80.6471C184.068 82.5668 180.349 83.6466 176.63 83.6466ZM176.63 44.8936C166.552 44.8936 158.393 53.0521 158.513 63.1303C158.513 73.2085 166.672 81.367 176.75 81.247C179.509 81.247 182.269 80.6471 184.788 79.3274L172.191 66.8496C171.951 66.6097 171.831 66.3697 171.831 66.0098C171.831 65.6498 171.951 65.4099 172.191 65.1699L188.268 49.0928C185.028 46.3333 180.949 44.8936 176.63 44.8936Z" fill="#FF6C37"/>
<path d="M190.427 49.3327L190.187 49.0928L173.031 66.0097L186.588 79.5673C187.908 78.7274 189.228 77.7676 190.307 76.6878C197.986 69.1292 197.986 56.8914 190.427 49.3327Z" fill="white"/>
<path d="M186.708 80.887C186.348 80.887 186.108 80.767 185.868 80.527L172.191 66.8495C171.951 66.6096 171.831 66.3696 171.831 66.0097C171.831 65.6497 171.951 65.4098 172.191 65.1698L189.228 48.1329C189.707 47.653 190.427 47.653 190.907 48.1329L191.267 48.3728C199.306 56.4114 199.306 69.3691 191.387 77.5276C190.187 78.7274 188.868 79.8072 187.428 80.647C187.068 80.767 186.828 80.887 186.708 80.887ZM174.71 66.0097L186.828 78.1275C187.788 77.5276 188.748 76.6877 189.468 75.9679C196.306 69.1291 196.666 57.9711 190.067 50.7724L174.71 66.0097Z" fill="#FF6C37"/>
<path d="M165.352 79.2075C162.472 76.328 157.793 76.328 154.914 79.2075L109.682 124.439L117.241 131.998L165.112 90.0055C168.231 87.366 168.471 82.6868 165.832 79.5674C165.592 79.4474 165.472 79.3274 165.352 79.2075Z" fill="white"/>
<path d="M117.12 133.198C116.761 133.198 116.521 133.078 116.281 132.838L108.722 125.279C108.242 124.799 108.242 124.079 108.722 123.6L153.954 78.3677C157.313 75.0083 162.712 75.0083 166.072 78.3677C169.431 81.7271 169.431 87.1261 166.072 90.4855C165.952 90.6055 165.832 90.7255 165.712 90.8454L117.84 132.838C117.72 133.078 117.48 133.198 117.12 133.198ZM111.362 124.439L117.24 130.318L164.272 89.0458C166.912 86.8862 167.151 82.9269 164.992 80.2873C162.832 77.6478 158.873 77.4079 156.233 79.5675C156.113 79.6874 155.993 79.8074 155.754 79.9274L111.362 124.439Z" fill="#FF6C37"/>
<path d="M75.0081 175.91C74.5282 176.15 74.2883 176.63 74.4083 177.11L76.4479 185.748C76.9278 186.948 76.2079 188.388 74.8882 188.748C73.9283 189.108 72.8485 188.748 72.2486 188.028L59.051 174.95L102.123 131.878L117.001 132.118L127.079 142.196C124.679 144.236 110.162 158.273 75.0081 175.91Z" fill="white"/>
<path d="M74.0483 189.948C73.0885 189.948 72.1287 189.588 71.5288 188.868L58.4511 175.79C58.2112 175.55 58.0912 175.31 58.0912 174.95C58.0912 174.59 58.2112 174.35 58.4511 174.11L101.523 131.038C101.763 130.798 102.123 130.678 102.363 130.678L117.241 130.918C117.6 130.918 117.84 131.038 118.08 131.278L128.159 141.356C128.399 141.596 128.518 141.956 128.518 142.316C128.518 142.676 128.399 142.916 128.039 143.156L127.199 143.876C114.481 155.034 97.2041 166.192 75.728 176.87L77.7676 185.388C78.1276 186.948 77.4077 188.628 75.968 189.468C75.2481 189.828 74.6482 189.948 74.0483 189.948ZM60.8507 174.95L73.2085 187.188C73.5684 187.788 74.2883 188.028 74.8882 187.668C75.4881 187.308 75.728 186.588 75.3681 185.988L73.3284 177.35C73.0885 176.27 73.5684 175.31 74.5282 174.83C95.7644 164.152 112.921 153.114 125.519 142.196L116.641 133.318L102.843 133.078L60.8507 174.95Z" fill="#FF6C37"/>
<path d="M48.8528 185.268L59.171 174.95L74.5282 190.307L50.0526 188.628C48.9728 188.508 48.2529 187.548 48.3729 186.468C48.3729 185.988 48.4929 185.508 48.8528 185.268Z" fill="white"/>
<path d="M74.5282 191.387L49.9327 189.707C48.133 189.587 46.9332 188.028 47.0532 186.228C47.1731 185.508 47.4131 184.788 48.013 184.308L58.3311 173.99C58.8111 173.51 59.5309 173.51 60.0108 173.99L75.3681 189.348C75.728 189.707 75.848 190.187 75.608 190.667C75.3681 191.147 75.0081 191.387 74.5282 191.387ZM59.171 176.63L49.6927 186.108C49.3328 186.348 49.3328 186.948 49.6927 187.188C49.8127 187.308 49.9327 187.428 50.1726 187.428L71.4088 188.868L59.171 176.63Z" fill="#FF6C37"/>
<path d="M97.924 137.397C97.2042 137.397 96.7242 136.797 96.7242 136.197C96.7242 135.837 96.8442 135.597 97.0842 135.357L108.722 123.719C109.202 123.239 109.922 123.239 110.402 123.719L117.96 131.278C118.32 131.638 118.44 131.998 118.32 132.478C118.2 132.838 117.84 133.198 117.361 133.318L98.164 137.397C98.044 137.397 97.924 137.397 97.924 137.397ZM109.562 126.239L101.643 134.157L114.601 131.398L109.562 126.239Z" fill="#FF6C37"/>
<path d="M117.001 132.118L103.803 134.997C102.843 135.237 101.883 134.637 101.643 133.678C101.523 133.078 101.643 132.478 102.123 131.998L109.442 124.679L117.001 132.118Z" fill="white"/>
<path d="M103.563 136.197C101.883 136.197 100.563 134.877 100.563 133.198C100.563 132.358 100.923 131.638 101.403 131.038L108.722 123.719C109.202 123.239 109.922 123.239 110.402 123.719L117.96 131.278C118.32 131.638 118.44 131.998 118.32 132.478C118.2 132.838 117.84 133.198 117.36 133.318L104.163 136.197C103.923 136.197 103.683 136.197 103.563 136.197ZM109.562 126.239L103.083 132.718C102.843 132.958 102.843 133.198 102.963 133.438C103.083 133.678 103.323 133.797 103.683 133.797L114.721 131.398L109.562 126.239Z" fill="#FF6C37"/>
<path d="M190.547 60.8509C190.307 60.131 189.467 59.7711 188.748 60.011C188.028 60.251 187.668 61.0908 187.908 61.8107C187.908 61.9307 188.028 62.0507 188.028 62.1707C188.748 63.6104 188.508 65.4101 187.548 66.7298C187.068 67.3297 187.188 68.1696 187.668 68.6495C188.268 69.1294 189.108 69.0094 189.587 68.4095C191.387 66.1299 191.747 63.2505 190.547 60.8509Z" fill="#FF6C37"/>
</g>
<defs>
<clipPath id="clip0_60_732">
<rect width="240" height="240" fill="white"/>
</clipPath>
</defs>
</svg>
