<svg width="240" height="240" viewBox="0 0 240 240" fill="none" xmlns="http://www.w3.org/2000/svg">
<path d="M120 170C55.5 170 5 148 5 120C5 92 55.5 70 120 70C184.5 70 235 92 235 120C235 148 184.5 170 120 170ZM120 80C57 80 15 100.5 15 120C15 139.5 57 160 120 160C183 160 225 139.5 225 120C225 100.5 183 80 120 80Z" fill="#80DEEA"/>
<path d="M75.4999 223C70.4999 223 66.4999 222 62.4999 219.5C37.9999 205.5 44.4999 151 76.4999 95.0001C91.4999 69.0001 110 47.0001 128 33.0001C147.5 18.0001 165 13.5001 177 20.5001C189.5 27.5001 194 45.0001 191 69.5001C188 92.5001 178 119.5 163 145.5C148 171.5 129.5 193.5 111.5 207.5C98.4999 217.5 85.9999 223 75.4999 223ZM164.5 27.0001C156.5 27.0001 146 31.5001 134.5 40.5001C117.5 54.0001 99.9999 75.0001 85.4999 100C53.9999 154.5 50.9999 201.5 67.4999 211C75.9999 216 89.9999 211.5 105.5 199.5C122.5 186 140 165 154.5 140C169 115 178.5 89.5001 181.5 68.0001C184 48.0001 181 34.0001 172.5 29.0001C170 28.0001 167.5 27.0001 164.5 27.0001Z" fill="#80DEEA"/>
<path d="M165 223C140 223 104 192.5 77 145C44.5 89.0001 38 34.5001 62.5 20.5001C87 6.50011 131 39.0001 163.5 95.0001C178.5 121 188.5 148 191.5 171C195 195.5 190 212.5 177.5 220C173.5 222 169.5 223 165 223ZM67.5 29.0001C51 38.5001 54 85.5001 85.5 140C117 194.5 156 220.5 172.5 211C181 206 184 192 181.5 172C178.5 150.5 169 125 154.5 100C123 45.5001 84 19.5001 67.5 29.0001Z" fill="#80DEEA"/>
<path d="M120 140C131.046 140 140 131.046 140 120C140 108.954 131.046 100 120 100C108.954 100 100 108.954 100 120C100 131.046 108.954 140 120 140Z" fill="#80DEEA"/>
</svg>
