<svg width="240" height="240" viewBox="0 0 240 240" fill="none" xmlns="http://www.w3.org/2000/svg">
<path d="M198.525 42.7501C188.692 29.2575 174.194 19.9017 157.849 16.5004C141.503 13.0991 124.477 15.895 110.077 24.3451L59.7 55.5001C52.9474 59.5694 47.1309 65.0198 42.6317 71.4939C38.1325 77.9681 35.0521 85.3199 33.5925 93.0676C31.1974 106.027 33.315 119.415 39.5925 131.003C35.2905 137.329 32.3508 144.48 30.96 152.003C29.5283 159.856 29.7214 167.919 31.5273 175.695C33.3333 183.471 36.7137 190.794 41.46 197.213C51.2934 210.707 65.7901 220.065 82.1358 223.472C98.4814 226.878 115.51 224.09 129.915 215.648L180.3 184.5C187.05 180.428 192.865 174.977 197.364 168.503C201.863 162.03 204.945 154.679 206.407 146.933C208.818 133.964 206.699 120.561 200.407 108.968C204.714 102.643 207.657 95.4915 209.047 87.9676C210.479 80.1116 210.284 72.0455 208.474 64.268C206.664 56.4905 203.278 49.167 198.525 42.7501Z" fill="#FF3E00"/>
<path d="M105.165 199.8C97.2879 201.82 88.9857 201.428 81.334 198.675C73.6823 195.921 67.0338 190.933 62.25 184.357C59.3855 180.502 57.343 176.1 56.249 171.423C55.155 166.747 55.0328 161.895 55.89 157.17C56.1752 155.618 56.5738 154.089 57.0825 152.595L58.035 149.782L60.615 151.567C66.604 155.833 73.2666 159.063 80.325 161.122L82.1625 161.67L81.975 163.447C81.7591 166.033 82.4805 168.61 84.0075 170.707C85.4429 172.737 87.4632 174.282 89.7988 175.134C92.1345 175.986 94.6745 176.106 97.08 175.477C98.1668 175.195 99.2056 174.752 100.162 174.165L150.412 143.01C151.636 142.268 152.691 141.278 153.508 140.104C154.326 138.93 154.889 137.597 155.16 136.192C155.43 134.776 155.407 133.319 155.093 131.911C154.778 130.504 154.178 129.176 153.33 128.01C151.887 126.026 149.882 124.521 147.574 123.689C145.266 122.857 142.762 122.737 140.385 123.345C139.292 123.628 138.248 124.073 137.287 124.665L117.997 136.545C114.827 138.507 111.378 139.978 107.767 140.91C99.8842 142.935 91.5742 142.545 83.9153 139.79C76.2563 137.035 69.6019 132.043 64.815 125.46C61.9695 121.592 59.9482 117.182 58.8761 112.501C57.8041 107.821 57.7041 102.97 58.5825 98.2498C59.4677 93.5996 61.3198 89.1872 64.0188 85.2984C66.7177 81.4095 70.2034 78.1309 74.25 75.6748L124.56 44.5198C127.731 42.5601 131.18 41.091 134.79 40.1623C142.674 38.1323 150.985 38.5194 158.646 41.2732C166.307 44.0269 172.963 49.0202 177.75 55.6048C180.614 59.4601 182.656 63.8622 183.75 68.5388C184.844 73.2153 184.967 78.0666 184.11 82.7923C183.826 84.3446 183.427 85.8737 182.917 87.3673L181.965 90.1798L179.385 88.4023C173.399 84.131 166.736 80.9006 159.675 78.8473L157.837 78.2923L158.025 76.5148C158.241 73.9281 157.516 71.3505 155.985 69.2548C154.546 67.2683 152.542 65.761 150.235 64.929C147.928 64.097 145.423 63.9788 143.047 64.5898C141.959 64.8716 140.92 65.3166 139.965 65.9098L89.55 96.9598C88.3261 97.6976 87.2719 98.6857 86.4563 99.8593C85.6408 101.033 85.0823 102.365 84.8175 103.77C84.5403 105.187 84.5597 106.647 84.8747 108.056C85.1897 109.466 85.7933 110.795 86.6475 111.96C88.0914 113.942 90.097 115.446 92.4048 116.276C94.7126 117.107 97.2165 117.225 99.5925 116.617C100.684 116.333 101.727 115.891 102.69 115.305L121.905 103.417C125.074 101.454 128.524 99.985 132.135 99.0598C140.019 97.034 148.329 97.4231 155.989 100.177C163.649 102.93 170.305 107.921 175.095 114.502C177.952 118.361 179.987 122.764 181.074 127.441C182.162 132.117 182.279 136.967 181.417 141.69C180.538 146.345 178.689 150.763 175.989 154.656C173.29 158.55 169.801 161.831 165.75 164.287L115.447 195.442C112.278 197.405 108.829 198.875 105.217 199.8" fill="white"/>
</svg>
