<svg width="240" height="240" viewBox="0 0 240 240" fill="none" xmlns="http://www.w3.org/2000/svg">
<path d="M120 48.02C92.055 48.02 73.265 60.215 63.62 84.61C62.62 87.135 65.705 89.21 67.7 87.365C77.875 77.955 89.31 74.84 102 78.01C111.13 80.29 117.655 86.915 124.88 94.245C136.64 106.18 150.255 120 180 120C207.945 120 226.74 107.8 236.38 83.405C237.38 80.88 234.295 78.805 232.3 80.65C222.125 90.06 210.69 93.18 198 90.01C188.875 87.73 182.35 81.105 175.125 73.775C163.36 61.835 149.74 48.02 120 48.02ZM60 120C32.055 120 13.26 132.2 3.62 156.595C2.62 159.12 5.705 161.195 7.7 159.35C17.875 149.94 29.31 146.82 42 149.995C51.125 152.28 57.65 158.9 64.875 166.225C76.64 178.165 90.26 191.985 120 191.985C147.945 191.985 166.74 179.785 176.38 155.39C177.38 152.865 174.295 150.79 172.3 152.635C162.125 162.045 150.69 165.165 138 161.99C128.87 159.71 122.345 153.085 115.12 145.76C103.36 133.82 89.745 120 60 120Z" fill="url(#paint0_linear_57_264)"/>
<defs>
<linearGradient id="paint0_linear_57_264" x1="109.305" y1="41.185" x2="128.515" y2="182.76" gradientUnits="userSpaceOnUse">
<stop stop-color="#00C1E0"/>
<stop offset="1" stop-color="#009BB8"/>
</linearGradient>
</defs>
</svg>
