<svg width="240" height="240" viewBox="0 0 240 240" fill="none" xmlns="http://www.w3.org/2000/svg">
<path d="M220 120C220 175.225 175.225 220 120 220C64.775 220 20 175.225 20 120C20 64.775 64.775 20 120 20C175.225 20 220 64.775 220 120Z" fill="url(#paint0_linear_57_392)"/>
<path opacity="0.05" d="M50.595 117.33C91.37 98.8549 139.26 78.8099 146.635 75.9099C162.895 69.5149 169.985 76.0499 168.875 86.4749C167.51 99.2499 161.04 136.425 157.06 163.06C154.73 178.645 146.29 183.42 136.765 177.375C129.54 172.79 104.7 156.525 98.1649 150.965C93.7099 147.175 90.605 142.925 93.765 138.595C94.69 137.33 97.055 134.78 98.3699 133.51C104.965 127.12 104.075 125.745 96.0999 131.45C95.1499 132.13 89.64 136.125 87.375 137.635C81.825 141.335 76.72 141.535 68.065 138.595C60.985 136.19 54.185 134.335 49.895 132.48C43.97 129.915 41.7 121.36 50.595 117.33Z" fill="black"/>
<path opacity="0.07" d="M54.18 117.955C92.04 101.03 138.6 81.6352 145.41 78.8902C161.73 72.3002 167.735 76.2102 165.98 88.9452C164.35 100.735 158.565 137.215 154.51 161.67C152.12 176.065 145.14 179.235 136.05 173.355C130.355 169.685 107.435 154.585 101.875 150.19C97.575 146.795 93.12 142.875 98.325 137.2C100.065 135.305 109.675 126.03 116.86 119.13C121.025 115.125 119.54 113.15 114.515 116.59C105.3 122.905 90.225 132.9 87.535 134.715C82.41 138.165 77.595 138.995 69.215 136.36C62.61 134.28 56.23 132.265 52.905 130.97C45.475 128.09 45.375 121.89 54.18 117.955Z" fill="black"/>
<path d="M57.7651 118.585C92.715 103.21 137.94 84.4651 144.185 81.8701C160.56 75.0801 165.585 76.3801 163.08 91.4201C161.28 102.23 156.09 138.015 151.95 160.29C149.495 173.5 143.985 175.065 135.325 169.35C131.16 166.6 110.135 152.695 105.57 149.43C101.405 146.455 95.66 142.875 102.865 135.825C105.43 133.315 122.235 117.265 135.33 104.775C137.045 103.135 134.89 100.44 132.91 101.755C115.26 113.46 90.79 129.705 87.675 131.82C82.97 135.015 78.45 136.48 70.34 134.15C64.21 132.39 58.225 130.29 55.895 129.49C46.92 126.41 49.0501 122.42 57.7651 118.585Z" fill="white"/>
<defs>
<linearGradient id="paint0_linear_57_392" x1="49.29" y1="49.29" x2="190.71" y2="190.71" gradientUnits="userSpaceOnUse">
<stop stop-color="#33BEF0"/>
<stop offset="1" stop-color="#0A85D9"/>
</linearGradient>
</defs>
</svg>
