<svg width="480" height="480" viewBox="0 0 480 480" fill="none" xmlns="http://www.w3.org/2000/svg">
<path fill-rule="evenodd" clip-rule="evenodd" d="M380 420H100C77.91 420 60 402.09 60 380V100C60 77.91 77.91 60 100 60H380C402.09 60 420 77.91 420 100V380C420 402.09 402.09 420 380 420Z" fill="#212121"/>
<path d="M342.57 340H278.2L138.29 140H202.66L342.57 340ZM285.87 323.04H311.5L194.99 156.96H169.36L285.87 323.04Z" fill="white"/>
<path d="M158.66 340L230.69 256.56L221.27 244.07L138.23 340H158.66Z" fill="white"/>
<path d="M244.5 217.21L253.55 230.1L331.36 140H311.36L244.5 217.21Z" fill="white"/>
</svg>
